<svg class="icon" style="width: 1em;height: 1em;vertical-align: middle;fill: currentColor;overflow: hidden;" viewBox="0 0 1024 1024" version="1.1" xmlns="http://www.w3.org/2000/svg" p-id="6230"><path d="M925.12768 353.1008H19.42016v540.25216c0 43.88352 35.57376 79.45216 79.45216 79.45216H925.1328c43.88352 0 79.45216-35.56352 79.45216-79.45216V353.1008h-79.45728z" fill="#EBE2CE" p-id="6231"></path><path d="M19.42016 861.568h985.15968v-15.88736H19.42016v15.88736z m0-397.24032v15.89248h985.15968v-15.89248H19.42016z m0 270.12608h985.15968v-15.89248H19.42016v15.89248z m0-127.11424h985.15968v-15.89248H19.42016v15.89248z" fill="#D9D3C6" p-id="6232"></path><path d="M194.20672 353.1008h15.89248V972.8h-15.89248z" fill="#E1CACA" p-id="6233"></path><path d="M925.12768 51.2H98.87232c-43.87328 0-79.45216 35.56352-79.45216 79.44704v222.45888h985.1648V130.64704C1004.57984 86.76352 969.01632 51.2 925.12768 51.2z" fill="#6D9DA1" p-id="6234"></path><path d="M361.4464 143.68256c-3.39456 0-6.2208 1.05472-8.4992 3.16416-2.2784 2.12992-3.41504 5.20192-3.41504 9.216v60.06784h-0.32768l-50.36544-67.20512c-1.05472-1.48992-2.62144-2.72896-4.68992-3.7376-2.06336-1.00864-3.84-1.50528-5.3248-1.50528-3.38944 0-6.2208 1.05472-8.50432 3.16416-2.27328 2.12992-3.41504 5.20192-3.41504 9.216v90.2656c0 4.0192 1.14176 7.0912 3.41504 9.216 2.2784 2.10944 5.11488 3.16416 8.50432 3.16416 3.39456 0 6.2208-1.05472 8.50432-3.16416 2.27328-2.12992 3.41504-5.20192 3.41504-9.216V187.05408h0.32256l50.36544 66.41664c1.16736 1.48992 2.75456 2.72896 4.77184 3.7376 2.01216 1.00864 3.75296 1.50528 5.23776 1.50528 3.38944 0 6.2208-1.05472 8.50432-3.16416 2.2784-2.12992 3.42016-5.20192 3.42016-9.216v-90.2656c0-4.0192-1.14176-7.0912-3.42016-9.216-2.2784-2.11456-5.10976-3.16928-8.4992-3.16928z m122.74688 16.19968a52.8384 52.8384 0 0 0-17.31584-12.55424c-6.72256-3.072-14.06464-4.608-22.01088-4.608-8.15616 0-15.57504 1.50528-22.2464 4.5312a52.6848 52.6848 0 0 0-17.23904 12.39552c-4.81792 5.24288-8.55552 11.40736-11.20256 18.51392-2.64704 7.0912-3.97312 14.7712-3.97312 23.04 0 8.25344 1.32608 15.93856 3.97312 23.02976 2.64704 7.10656 6.38464 13.26592 11.20256 18.51392a52.39296 52.39296 0 0 0 17.31584 12.39552c6.72768 3.02592 14.12096 4.5312 22.1696 4.5312 8.16128 0 15.60064-1.50528 22.32832-4.5312a51.57888 51.57888 0 0 0 17.23904-12.39552c4.76672-5.24288 8.4736-11.40736 11.12576-18.51392 2.64704-7.0912 3.97312-14.7712 3.97312-23.02976a63.488 63.488 0 0 0-4.05504-22.7328 58.23488 58.23488 0 0 0-11.28448-18.5856zM472.91392 215.0912a34.63168 34.63168 0 0 1-5.56032 11.60704 28.24192 28.24192 0 0 1-9.2928 8.02304c-3.712 2.01728-8.09984 3.02592-13.18912 3.02592-5.08416 0-9.48224-1.00864-13.184-3.02592a28.08832 28.08832 0 0 1-9.2928-8.02304 34.5344 34.5344 0 0 1-5.56032-11.60704 51.66592 51.66592 0 0 1-1.82784-13.88544c0-4.78208 0.63488-9.38496 1.90976-13.824 1.27488-4.4544 3.1488-8.35072 5.64224-11.68384a28.30848 28.30848 0 0 1 9.2928-8.02304c3.712-2.01728 8.05376-3.02592 13.02528-3.02592 4.98176 0 9.32352 1.00864 13.03552 3.02592a28.30848 28.30848 0 0 1 9.2928 8.02304c2.48832 3.33312 4.36736 7.22944 5.64224 11.68384 1.27488 4.43904 1.90976 9.04704 1.90976 13.824a52.25984 52.25984 0 0 1-1.8432 13.88544z m104.63232-70.46144h-58.47552c-3.39456 0-6.03648 1.14688-7.94624 3.41504-1.89952 2.28352-2.85696 4.79744-2.85696 7.55712 0 2.74944 0.84992 5.25824 2.53952 7.54176 1.69984 2.2784 4.4544 3.41504 8.26368 3.41504h17.32608v79.77472c0 4.0192 1.13152 7.0912 3.40992 9.216 2.26304 2.10944 5.12512 3.16416 8.50432 3.16416 3.38432 0 6.22592-1.05472 8.50432-3.16416 2.26304-2.12992 3.41504-5.20192 3.41504-9.216V166.5536h17.31584c3.8144 0 6.56384-1.13152 8.25344-3.41504 1.70496-2.28352 2.54464-4.79744 2.54464-7.54176 0-2.7648-0.9472-5.2736-2.85696-7.55712-1.90976-2.26304-4.5568-3.40992-7.94112-3.40992z m77.21472 91.2128h-29.3888v-24.16128h26.07104c3.8144 0 6.68672-1.13152 8.6528-3.41504 1.95584-2.2784 2.93376-4.79744 2.93376-7.54176 0-2.7648-0.9472-5.27872-2.87232-7.55712-1.8944-2.26304-4.80768-3.41504-8.71936-3.41504h-26.07104V166.5536h27.96032c3.72736 0 6.51776-1.13152 8.42752-3.41504 1.90976-2.28352 2.87744-4.79744 2.87744-7.54176 0-2.7648-0.93696-5.2736-2.79552-7.55712-1.8432-2.26304-4.6848-3.41504-8.50432-3.41504h-39.39328c-4.23936 0-7.3728 1.30048-9.39008 3.89632-2.00192 2.59072-3.01056 5.90848-3.01056 9.92768v87.39328c0 3.59936 1.16736 6.48704 3.5072 8.65792 2.3296 2.17088 5.24288 3.25632 8.71936 3.25632h41.00096c3.72736 0 6.51264-1.13152 8.43776-3.41504 1.8944-2.28352 2.85696-4.79744 2.85696-7.55712 0-2.74944-0.93184-5.25824-2.79552-7.54176-1.84832-2.26816-4.68992-3.39968-8.50432-3.39968z m99.55328-29.56288a31.29856 31.29856 0 0 0-9.85088-10.1632 52.90496 52.90496 0 0 0-12.80512-5.95968c-4.54656-1.42848-8.81152-2.73408-12.78464-3.89632-3.968-1.16736-7.26016-2.4832-9.83552-3.97312-2.6112-1.48992-3.91168-3.59936-3.91168-6.36416 0-3.38432 1.3312-5.95968 3.968-7.69536a16.09216 16.09216 0 0 1 9.0624-2.62144c2.3296 0 4.4544 0.23552 6.36416 0.7168s3.67616 1.024 5.31968 1.65888c1.62816 0.64 3.23072 1.19296 4.76672 1.67424 1.536 0.48128 3.10272 0.7168 4.6848 0.7168 3.29216 0 5.88288-1.19296 7.78752-3.56864 1.90976-2.39104 2.85696-5.12 2.85696-8.192 0-3.17952-1.20832-5.77024-3.64544-7.78752a29.44 29.44 0 0 0-8.67328-4.8384 49.54112 49.54112 0 0 0-10.24-2.54464c-3.49184-0.46592-6.36416-0.7168-8.56576-0.7168a44.9536 44.9536 0 0 0-15.11424 2.54464c-4.76672 1.69472-8.93952 4.08064-12.53888 7.15264s-6.47168 6.85568-8.59648 11.35616c-2.10944 4.50048-3.16416 9.51296-3.16416 15.02208 0 6.144 1.3056 11.06432 3.88096 14.7712a29.43488 29.43488 0 0 0 9.87136 8.89344c3.968 2.23744 8.2176 3.97312 12.78464 5.24288 4.54656 1.27488 8.81664 2.52928 12.78464 3.7376 3.97312 1.22368 7.26528 2.69824 9.856 4.4544 2.59072 1.73568 3.89632 4.15744 3.89632 7.22944 0 3.91168-1.3824 7.168-4.13184 9.76384-2.75968 2.60608-6.79424 3.8912-12.06784 3.8912-2.54464 0-5.0432-0.31232-7.48032-0.9472a86.14912 86.14912 0 0 1-6.98368-2.14016 171.22816 171.22816 0 0 0-6.35904-2.15552 19.34848 19.34848 0 0 0-5.87776-0.9472c-3.2768 0-5.87776 1.11616-7.77728 3.33312-1.92512 2.22208-2.87232 4.87424-2.87232 7.94624 0 3.712 1.42336 6.7328 4.29568 9.0624 2.85696 2.3296 6.33344 4.12672 10.39872 5.4016 4.08064 1.27488 8.31488 2.14016 12.7232 2.62144 4.37248 0.46592 8.1152 0.7168 11.20256 0.7168a47.98976 47.98976 0 0 0 15.64672-2.54464 38.95808 38.95808 0 0 0 12.93824-7.31136 34.6112 34.6112 0 0 0 8.832-11.60704c2.15552-4.54656 3.25632-9.68192 3.25632-15.40608-0.00512-6.784-1.3056-12.29312-3.90144-16.52736z" fill="#46696C" p-id="6235"></path></svg>
